<svg xmlns="http://www.w3.org/2000/svg" viewBox="0 0 32 32">
<style>.d{fill:#16181d} .ring{fill:none;stroke:#16181d} .bg{fill:#ffffff}
@media (prefers-color-scheme: dark){.d{fill:#e8eaee} .ring{stroke:#e8eaee} .bg{fill:#111318}}</style>
<circle class="bg" cx="16" cy="16" r="15.5"/>
<g class="d"><circle cx="6.0" cy="11.0" r="1.55"/><circle cx="6.0" cy="16.0" r="1.55"/><circle cx="6.0" cy="21.0" r="1.55"/><circle cx="11.0" cy="6.0" r="1.55"/><circle cx="11.0" cy="11.0" r="1.55"/><circle cx="11.0" cy="16.0" r="1.55"/><circle cx="11.0" cy="21.0" r="1.55"/><circle cx="11.0" cy="26.0" r="1.55"/><circle cx="16.0" cy="6.0" r="1.55"/><circle cx="16.0" cy="11.0" r="1.55"/><circle cx="16.0" cy="16.0" r="1.55"/><circle cx="16.0" cy="21.0" r="1.55"/><circle cx="16.0" cy="26.0" r="1.55"/><circle cx="21.0" cy="6.0" r="1.55"/><circle cx="21.0" cy="11.0" r="1.55"/><circle cx="21.0" cy="16.0" r="1.55"/><circle cx="21.0" cy="21.0" r="1.55"/><circle cx="21.0" cy="26.0" r="1.55"/><circle cx="26.0" cy="11.0" r="1.55"/><circle cx="26.0" cy="16.0" r="1.55"/><circle cx="26.0" cy="21.0" r="1.55"/></g>
<circle class="ring" cx="16" cy="16" r="14.4" stroke-width="2.6"/>
</svg>
